<svg fill="none" height="160" viewbox="0 0 346 160" width="346" xmlns="http://www.w3.org/2000/svg">	<path d="M173.083 0H172.606V159.727H173.083V0Z" fill="white"></path>	<path d="M74.4648 76.4179C73.2708 75.9744 71.258 75.9318 69.5607 77.3135C67.8635 75.9318 65.8507 75.9744 64.6567 76.4179C63.6588 76.7932 62.8742 77.0405 61.4072 77.0235C62.8656 80.0597 65.9701 82.1578 69.5607 82.1578C73.1514 82.1578 76.2558 80.0597 77.7143 77.0235C76.2473 77.0405 75.4627 76.7932 74.4648 76.4179Z" fill="white"></path>	<path d="M69.5695 0.0766602C44.981 0.0766602 25.0492 20.0084 25.0492 44.5969C25.0492 65.6715 39.6931 83.3347 59.369 87.9402C43.7358 79.582 37.3648 60.4008 44.9042 44.3411C46.1238 50.6865 50.2603 56.3411 56.4351 59.2664C48.3754 40.4178 54.3115 18.26 70.9426 6.00417C67.6675 17.211 72.691 27.4541 83.4714 35.1982C95.804 44.0511 96.3243 62.115 85.4415 71.872C89.7656 70.8656 93.7827 68.486 96.7933 64.8443C94.9426 74.388 88.9554 83.0276 79.7784 87.9402C99.4458 83.3261 114.098 65.6715 114.098 44.5969C114.081 20.0084 94.1494 0.0766602 69.5695 0.0766602Z" fill="white"></path>	<path d="M6.8742 106.124C6.36248 106.891 5.49254 107.326 4.69083 107.727C3.81237 108.162 2.90832 108.597 2.16631 109.262V102.269H4.21322C5.36461 102.269 6.62687 102.618 7.07889 103.795C7.35181 104.503 7.30917 105.467 6.8742 106.124ZM6.97655 100.802C5.94456 100.307 4.81876 100.247 3.69297 100.247H0V114.158H2.15778C2.15778 113.373 2.10661 112.554 2.44776 111.821C2.99361 110.635 4.26439 110.064 5.37314 109.527C6.55864 108.955 7.8806 108.392 8.66525 107.275C9.36461 106.286 9.55224 104.981 9.34755 103.795C9.11727 102.456 8.19616 101.39 6.97655 100.802Z" fill="white"></path>	<path d="M22.8487 108.938C21.5779 107.65 19.6248 107.198 17.8679 107.48V105.211C17.8679 104.793 17.8593 104.375 17.9617 103.966C18.1664 103.181 18.7634 102.533 19.531 102.277C20.3327 102.004 21.2623 102.132 21.9446 102.635C22.6269 103.147 22.9425 103.932 22.951 104.768C22.9595 105.424 22.951 106.072 22.951 106.729V109.075C22.9254 109.023 22.8913 108.981 22.8487 108.938ZM22.8742 100.631C20.9979 99.5735 18.3199 99.8806 16.87 101.518C16.1706 102.311 15.8124 103.326 15.7442 104.375C15.7271 104.64 15.7357 114.158 15.7357 114.158H17.8764V109.552C19.1386 109.39 20.5459 109.518 21.6035 110.286C22.5502 110.977 22.9681 112.06 22.9681 113.203C22.9681 113.527 22.9681 114.166 22.9681 114.166H25.1088V104.836C25.1088 103.122 24.4009 101.501 22.8742 100.631Z" fill="white"></path>	<path d="M36.5629 102.26C37.9361 102.26 39.3263 102.934 39.4798 104.435C39.548 105.16 39.3945 105.876 38.9083 106.431C38.3796 107.036 37.5949 107.403 36.887 107.753C36.0256 108.171 35.1557 108.597 34.4393 109.254V102.26H36.5629V102.26ZM39.8209 108.989C39.5736 108.861 39.3092 108.751 39.0363 108.665C39.7271 108.29 40.4009 107.821 40.887 107.19C41.3305 106.61 41.5864 105.936 41.6631 105.203C41.8337 103.676 41.3305 102.226 40.0768 101.296C38.4051 100.051 36.29 100.247 34.3199 100.247H32.2729V114.158H34.4307C34.4307 113.748 34.4137 113.331 34.4393 112.913C34.4819 111.991 34.8913 111.104 35.693 110.61C36.4776 110.132 37.5523 110.073 38.3881 110.448C39.2324 110.823 39.7783 111.633 39.9147 112.537C39.9915 113.066 39.9574 113.612 39.9574 114.149H42.1408C42.1408 113.382 42.1834 112.606 42.0128 111.855C41.7399 110.627 40.9382 109.586 39.8209 108.989Z" fill="white"></path>	<path d="M48.87 102.192C49.5779 102.004 50.3028 101.919 51.0278 101.868V100.239H48.87V102.192Z" fill="white"></path>	<path d="M48.87 103.412V114.158H51.0278V103.096C50.3028 103.122 49.5694 103.232 48.87 103.412Z" fill="white"></path>	<path d="M65.4585 107.48C64.6823 106.874 63.7527 106.525 62.8401 106.183C61.9958 105.876 61.0064 105.544 60.3838 104.844C59.8209 104.196 59.9403 103.173 60.5288 102.584C61.1344 101.979 62.1066 101.842 62.8998 102.09C63.7953 102.371 64.3412 103.181 64.3412 104.111H66.4819C66.4819 103.087 66.1578 102.107 65.4499 101.356C64.7676 100.631 63.8295 100.196 62.8487 100.068C61.8337 99.9318 60.7762 100.068 59.8721 100.58C59.0278 101.058 58.3113 101.825 58.0128 102.763C57.7229 103.659 57.7826 104.776 58.2431 105.603C58.7548 106.525 59.6845 107.079 60.6312 107.488C61.6631 107.923 62.8486 108.196 63.7612 108.853C64.1365 109.117 64.4435 109.458 64.5544 109.91C64.6653 110.354 64.6226 110.849 64.4179 111.258C63.9148 112.247 62.6781 112.554 61.6546 112.358C60.5118 112.136 59.6845 111.181 59.6845 110.013H57.5693C57.5693 111.147 57.9361 112.213 58.7463 113.015C59.548 113.817 60.6653 114.252 61.7826 114.337C62.9595 114.431 64.1706 114.192 65.1344 113.51C66.0299 112.878 66.6269 111.898 66.7463 110.806C66.8913 109.535 66.4819 108.29 65.4585 107.48Z" fill="white"></path>	<path d="M85.595 107.778C86.0726 107.181 86.5417 106.559 86.8573 105.859C87.1643 105.168 87.2837 104.409 87.1984 103.659C87.0364 102.226 86.047 101.041 84.7592 100.452C83.4457 99.8465 81.7826 99.8806 80.4948 100.537C79.1899 101.203 78.2602 102.473 78.1835 103.957C78.1067 105.475 78.8061 106.806 80.0001 107.719L81.2197 106.158C80.7848 105.74 80.4351 105.237 80.3327 104.623C80.2389 104.034 80.3327 103.446 80.6909 102.968C81.3903 102.021 82.789 101.74 83.8295 102.26C84.3498 102.516 84.7848 102.968 84.9724 103.522C85.1686 104.102 85.0747 104.759 84.8274 105.305C84.5801 105.859 84.1792 106.328 83.8039 106.797C82.3626 108.606 80.9127 110.414 79.4713 112.222C78.9596 112.87 78.4393 113.51 77.9276 114.158H87.7101V112.171H82.0982L85.595 107.778Z" fill="white"></path>	<path d="M105.45 109.203C104.606 111.19 102.61 112.461 100.452 112.333C98.3626 112.205 96.5459 110.704 95.9404 108.716C95.3178 106.669 96.0598 104.384 97.757 103.087C99.4628 101.791 101.876 101.74 103.642 102.959C105.603 104.316 106.388 106.994 105.45 109.203ZM105.928 102.107C103.77 100 100.392 99.4371 97.6632 100.699C94.8999 101.97 93.2453 104.904 93.5267 107.923C93.8082 110.883 96.0257 113.424 98.8999 114.149C101.817 114.891 105.015 113.8 106.763 111.326C108.52 108.836 108.469 105.348 106.635 102.908C106.422 102.627 106.183 102.354 105.928 102.107Z" fill="white"></path>	<path d="M121.808 107.778C122.286 107.181 122.755 106.559 123.07 105.859C123.386 105.168 123.497 104.409 123.412 103.659C123.249 102.226 122.26 101.041 120.972 100.452C119.659 99.8465 117.996 99.8806 116.708 100.537C115.403 101.203 114.473 102.473 114.397 103.957C114.32 105.475 115.019 106.806 116.213 107.719L117.433 106.158C116.998 105.74 116.648 105.237 116.546 104.623C116.452 104.034 116.546 103.446 116.904 102.968C117.603 102.021 119.002 101.74 120.043 102.26C120.563 102.516 120.998 102.968 121.177 103.522C121.373 104.102 121.279 104.759 121.032 105.305C120.785 105.859 120.384 106.328 120.009 106.797C118.567 108.606 117.117 110.414 115.676 112.222C115.164 112.87 114.644 113.51 114.124 114.158H123.906V112.171H118.294L121.808 107.778Z" fill="white"></path>	<path d="M137.049 103.966V108.682C136.017 107.949 134.738 107.727 133.655 107.079C132.725 106.524 132.426 105.552 132.426 104.52C132.418 103.514 132.426 100.239 132.426 100.239H130.26C130.26 100.239 130.26 103.139 130.26 104.58C130.26 106.064 130.627 107.514 131.838 108.469C132.588 109.058 133.484 109.416 134.38 109.731C135.173 110.013 136.026 110.354 136.563 111.028C136.989 111.556 137.041 112.188 137.041 112.844V114.149H139.113V103.957H137.049V103.966Z" fill="white"></path>	<path d="M57.1857 139.053C51.9319 139.053 47.6675 143.318 47.6675 148.571C47.6675 153.825 51.9319 158.09 57.1857 158.09C62.4394 158.09 66.7038 153.825 66.7038 148.571C66.7123 143.318 62.4479 139.053 57.1857 139.053ZM68.6142 148.571C68.6142 154.883 63.497 160 57.1857 160C50.8744 160 45.7656 154.883 45.7656 148.571C45.7656 142.26 50.8744 137.151 57.1857 137.151C63.497 137.151 68.6142 142.26 68.6142 148.571Z" fill="white"></path>	<path d="M81.9362 139.053C76.6739 139.053 72.418 143.318 72.418 148.571C72.418 153.825 76.6739 158.09 81.9362 158.09C87.1899 158.09 91.4543 153.825 91.4543 148.571C91.4628 143.318 87.1984 139.053 81.9362 139.053ZM93.3647 148.571C93.3647 154.883 88.2475 160 81.9362 160C75.6249 160 70.5161 154.883 70.5161 148.571C70.5161 142.26 75.6334 137.151 81.9362 137.151C88.2475 137.151 93.3647 142.26 93.3647 148.571Z" fill="white"></path>	<path d="M44.8188 126.678C38.5075 126.678 33.3903 131.787 33.3903 138.098C33.3903 144.409 38.5075 149.518 44.8188 149.518C45.1515 149.518 45.4755 149.501 45.8082 149.475C45.7826 149.177 45.7655 148.878 45.7655 148.571C45.7655 148.23 45.7826 147.898 45.8082 147.565C45.4841 147.599 45.1515 147.616 44.8103 147.616C39.548 147.616 35.2922 143.36 35.2922 138.098C35.2922 132.836 39.5566 128.58 44.8103 128.58C50.064 128.58 54.3284 132.844 54.3284 138.098C54.3284 142.32 51.5822 145.893 47.7698 147.147C47.7016 147.616 47.6589 148.094 47.6589 148.571C47.6589 148.768 47.6674 148.964 47.676 149.16C52.5971 147.881 56.2218 143.42 56.2218 138.107C56.2389 131.795 51.1216 126.678 44.8188 126.678Z" fill="white"></path>	<path d="M94.3112 126.678C88.307 126.678 83.3944 131.309 82.9253 137.194C83.565 137.245 84.1961 137.356 84.8102 137.518C85.1087 132.529 89.2537 128.58 94.3112 128.58C99.5735 128.58 103.829 132.844 103.829 138.098C103.829 143.36 99.5735 147.616 94.3112 147.616C89.5436 147.616 85.5863 144.102 84.904 139.522C84.2728 139.318 83.6161 139.181 82.9338 139.104C83.4456 144.938 88.3411 149.518 94.3112 149.518C100.623 149.518 105.731 144.401 105.731 138.089C105.74 131.795 100.623 126.678 94.3112 126.678Z" fill="white"></path>	<path d="M69.5695 126.678C63.5653 126.678 58.6441 131.309 58.1836 137.194C58.8318 137.254 59.4544 137.356 60.0685 137.518C60.367 132.529 64.5034 128.58 69.5695 128.58C74.8233 128.58 79.0876 132.844 79.0876 138.098C79.0876 142.32 76.3414 145.902 72.5375 147.147C72.4693 147.616 72.4267 148.085 72.4267 148.571C72.4267 148.768 72.4352 148.964 72.4437 149.16C77.3563 147.881 80.9896 143.411 80.9896 138.098C80.9896 131.795 75.8723 126.678 69.5695 126.678Z" fill="white"></path>	<path d="M70.5162 148.571C70.5162 148.23 70.5333 147.898 70.5589 147.565C70.2262 147.599 69.8936 147.616 69.561 147.616C64.7849 147.616 60.836 144.102 60.1452 139.522C59.5141 139.318 58.8659 139.181 58.1836 139.104C58.6953 144.938 63.5908 149.518 69.561 149.518C69.8936 149.518 70.2262 149.501 70.5503 149.475C70.5247 149.177 70.5162 148.878 70.5162 148.571Z" fill="white"></path>	<path d="M69.5695 126.678C63.5653 126.678 58.6441 131.309 58.1836 137.194C58.8318 137.254 59.4544 137.356 60.0685 137.518C60.367 132.529 64.5034 128.58 69.5695 128.58C74.8233 128.58 79.0876 132.844 79.0876 138.098C79.0876 142.32 76.3414 145.902 72.5375 147.147C72.4693 147.616 72.4267 148.085 72.4267 148.571C72.4267 148.768 72.4352 148.964 72.4437 149.16C77.3563 147.881 80.9896 143.411 80.9896 138.098C80.9896 131.795 75.8723 126.678 69.5695 126.678Z" fill="white"></path>	<path d="M281.126 76.4009C279.932 75.9574 277.919 75.9148 276.222 77.2965C274.525 75.9148 272.512 75.9489 271.318 76.4009C270.32 76.7762 269.535 77.0235 268.06 77.0065C269.518 80.0513 272.623 82.1408 276.222 82.1408C279.821 82.1408 282.925 80.0427 284.384 77.0065C282.908 77.0235 282.124 76.7762 281.126 76.4009Z" fill="white"></path>	<path d="M276.222 0C251.616 0 231.667 19.9488 231.667 44.5544C231.667 65.6461 246.328 83.3177 266.013 87.9318C250.371 79.565 243.992 60.3753 251.531 44.2985C252.751 50.6439 256.887 56.307 263.07 59.2409C255.002 40.3753 260.947 18.2004 277.586 5.93603C274.311 17.1514 279.343 27.403 290.132 35.1556C302.473 44.0171 302.994 62.0895 292.102 71.8635C296.427 70.8571 300.452 68.4776 303.463 64.8273C301.612 74.3795 295.616 83.0277 286.431 87.9403C306.115 83.3262 320.776 65.6546 320.776 44.5629C320.776 19.9488 300.827 0 276.222 0Z" fill="white"></path>	<path d="M213.476 106.132C212.964 106.9 212.094 107.335 211.292 107.736C210.414 108.171 209.51 108.614 208.768 109.271V102.269H210.815C211.966 102.269 213.228 102.618 213.68 103.804C213.962 104.512 213.911 105.475 213.476 106.132ZM213.587 100.802C212.546 100.307 211.429 100.247 210.303 100.247H206.601V114.175H208.768C208.768 113.39 208.717 112.563 209.049 111.829C209.595 110.644 210.866 110.072 211.975 109.535C213.16 108.964 214.482 108.401 215.275 107.284C215.975 106.294 216.162 104.989 215.958 103.804C215.727 102.456 214.806 101.39 213.587 100.802Z" fill="white"></path>	<path d="M229.467 108.947C228.196 107.659 226.243 107.207 224.486 107.488V105.211C224.486 104.793 224.478 104.375 224.58 103.966C224.785 103.181 225.382 102.533 226.158 102.277C226.959 102.004 227.889 102.132 228.571 102.635C229.254 103.147 229.569 103.932 229.578 104.776C229.586 105.433 229.578 106.081 229.578 106.738V109.092C229.544 109.04 229.51 108.989 229.467 108.947ZM229.493 100.631C227.616 99.5735 224.93 99.8806 223.48 101.518C222.772 102.311 222.422 103.335 222.354 104.384C222.337 104.648 222.345 114.175 222.345 114.175H224.486V109.561C225.748 109.399 227.164 109.527 228.222 110.294C229.168 110.985 229.586 112.068 229.586 113.211C229.586 113.535 229.586 114.175 229.586 114.175H231.727V104.836C231.727 103.122 231.028 101.501 229.493 100.631Z" fill="white"></path>	<path d="M243.19 102.26C244.563 102.26 245.962 102.934 246.107 104.435C246.183 105.16 246.021 105.876 245.535 106.431C245.007 107.036 244.222 107.403 243.505 107.753C242.644 108.171 241.774 108.606 241.058 109.254V102.26H243.19V102.26ZM246.456 108.998C246.209 108.87 245.945 108.759 245.663 108.674C246.354 108.299 247.028 107.829 247.514 107.198C247.957 106.618 248.213 105.945 248.29 105.211C248.452 103.684 247.957 102.235 246.704 101.296C245.032 100.051 242.908 100.247 240.947 100.247H238.9V114.175H241.066C241.066 113.765 241.049 113.348 241.075 112.93C241.117 112.009 241.527 111.122 242.328 110.627C243.113 110.149 244.188 110.09 245.024 110.465C245.868 110.84 246.414 111.659 246.559 112.554C246.636 113.083 246.601 113.638 246.601 114.166H248.785C248.785 113.399 248.827 112.623 248.657 111.872C248.375 110.644 247.574 109.595 246.456 108.998Z" fill="white"></path>	<path d="M255.505 102.2C256.213 102.013 256.938 101.927 257.672 101.876V100.247H255.505V102.2Z" fill="white"></path>	<path d="M255.505 103.42V114.175H257.672V103.096C256.938 103.13 256.213 103.232 255.505 103.42Z" fill="white"></path>	<path d="M272.111 107.488C271.335 106.883 270.405 106.533 269.484 106.192C268.631 105.885 267.642 105.552 267.028 104.853C266.456 104.205 266.584 103.181 267.173 102.593C267.778 101.987 268.751 101.851 269.552 102.098C270.448 102.38 270.994 103.19 270.994 104.128H273.134C273.134 103.105 272.81 102.124 272.102 101.373C271.42 100.648 270.482 100.213 269.501 100.085C268.478 99.9489 267.429 100.085 266.525 100.597C265.68 101.083 264.964 101.842 264.665 102.78C264.375 103.676 264.435 104.793 264.904 105.621C265.416 106.542 266.345 107.105 267.292 107.505C268.324 107.949 269.51 108.213 270.431 108.87C270.806 109.134 271.113 109.476 271.224 109.928C271.335 110.371 271.292 110.866 271.087 111.275C270.584 112.273 269.339 112.571 268.324 112.375C267.181 112.154 266.354 111.198 266.354 110.03H264.23C264.23 111.164 264.597 112.23 265.407 113.041C266.209 113.842 267.326 114.277 268.444 114.363C269.621 114.456 270.832 114.218 271.804 113.527C272.699 112.896 273.305 111.906 273.416 110.815C273.544 109.552 273.134 108.299 272.111 107.488Z" fill="white"></path>	<path d="M292.264 107.787C292.742 107.19 293.211 106.567 293.527 105.868C293.842 105.177 293.953 104.418 293.868 103.659C293.706 102.226 292.716 101.041 291.428 100.452C290.115 99.8465 288.452 99.8806 287.156 100.537C285.851 101.203 284.921 102.473 284.844 103.957C284.767 105.475 285.467 106.815 286.661 107.719L287.88 106.158C287.446 105.74 287.096 105.237 286.993 104.623C286.9 104.034 286.993 103.446 287.352 102.968C288.051 102.021 289.45 101.74 290.49 102.26C291.011 102.516 291.445 102.968 291.633 103.522C291.829 104.102 291.735 104.759 291.488 105.313C291.241 105.868 290.84 106.337 290.465 106.806C289.023 108.614 287.573 110.422 286.132 112.23C285.612 112.878 285.1 113.527 284.58 114.166H294.371V112.171H288.759L292.264 107.787Z" fill="white"></path>	<path d="M312.136 109.211C311.292 111.198 309.296 112.469 307.139 112.341C305.049 112.213 303.224 110.712 302.618 108.717C301.996 106.67 302.738 104.384 304.435 103.088C306.141 101.783 308.554 101.74 310.32 102.96C312.29 104.324 313.075 107.002 312.136 109.211ZM312.614 102.115C310.456 100.009 307.079 99.4372 304.341 100.708C301.578 101.979 299.915 104.913 300.205 107.932C300.486 110.891 302.704 113.433 305.578 114.158C308.495 114.9 311.701 113.808 313.45 111.335C315.207 108.844 315.156 105.348 313.322 102.908C313.1 102.627 312.87 102.363 312.614 102.115Z" fill="white"></path>	<path d="M328.512 107.787C328.989 107.19 329.458 106.567 329.774 105.868C330.089 105.177 330.2 104.418 330.115 103.659C329.953 102.226 328.964 101.041 327.676 100.452C326.362 99.8465 324.699 99.8806 323.403 100.537C322.098 101.203 321.168 102.473 321.092 103.957C321.015 105.475 321.714 106.815 322.908 107.719L324.128 106.158C323.693 105.74 323.343 105.237 323.241 104.623C323.147 104.034 323.241 103.446 323.599 102.968C324.298 102.021 325.697 101.74 326.738 102.26C327.258 102.516 327.693 102.968 327.88 103.522C328.077 104.102 327.983 104.759 327.735 105.313C327.488 105.868 327.087 106.337 326.712 106.806C325.271 108.614 323.821 110.422 322.379 112.23C321.859 112.878 321.347 113.527 320.827 114.166H330.618V112.171H325.006L328.512 107.787Z" fill="white"></path>	<path d="M343.761 103.974V108.691C342.729 107.957 341.442 107.736 340.367 107.087C339.437 106.533 339.139 105.552 339.139 104.529C339.13 103.522 339.139 100.247 339.139 100.247H336.972C336.972 100.247 336.972 103.147 336.972 104.597C336.972 106.081 337.339 107.531 338.559 108.486C339.309 109.075 340.205 109.433 341.1 109.748C341.894 110.03 342.746 110.38 343.292 111.045C343.719 111.574 343.77 112.205 343.77 112.861V114.166H345.851V103.966H343.761V103.974Z" fill="white"></path>	<path d="M273.97 126.968C270.721 126.217 266.286 127.045 262.098 129.467C255.548 133.254 252.068 139.505 254.346 143.437C255.795 145.953 259.241 146.908 263.25 146.286C261.416 145.868 259.966 144.938 259.139 143.522C256.87 139.591 260.341 133.339 266.891 129.552C269.262 128.179 271.702 127.326 273.97 126.968Z" fill="white"></path>	<path d="M274.021 142.482C274.994 145.672 277.928 149.1 282.115 151.514C288.665 155.301 295.821 155.181 298.09 151.241C299.539 148.725 298.644 145.271 296.102 142.107C296.657 143.906 296.58 145.629 295.761 147.045C293.493 150.977 286.337 151.096 279.787 147.318C277.424 145.962 275.463 144.273 274.021 142.482Z" fill="white"></path>	<path d="M269.578 134.763C267.309 137.203 265.8 141.45 265.8 146.294C265.8 153.859 269.484 160 274.021 160C276.921 160 279.471 157.493 280.938 153.714C279.659 155.088 278.132 155.889 276.495 155.889C271.957 155.889 268.273 149.757 268.273 142.183C268.273 139.446 268.751 136.904 269.578 134.763Z" fill="white"></path></svg>